<?xml version="1.0" encoding="utf-8"?>
<!-- Generator: Adobe Illustrator 27.5.0, SVG Export Plug-In . SVG Version: 6.00 Build 0)  -->
<svg version="1.1" id="Layer_1" xmlns="http://www.w3.org/2000/svg" xmlns:xlink="http://www.w3.org/1999/xlink" x="0px" y="0px"
	 viewBox="0 0 1080 1080" style="enable-background:new 0 0 1080 1080;" xml:space="preserve">
<style type="text/css">
	.st0{fill:#D44E50;}
	.st1{fill:none;stroke:#D44E50;stroke-width:126.4686;stroke-linecap:round;stroke-linejoin:round;stroke-miterlimit:10;}
</style>
<g>
	<g>
		<path class="st0" d="M540,181.57c48.44,0,95.37,9.46,139.48,28.12c42.67,18.05,81.01,43.91,113.97,76.86
			c32.96,32.96,58.82,71.3,76.86,113.97c18.66,44.11,28.11,91.03,28.11,139.48s-9.46,95.37-28.11,139.48
			c-18.05,42.67-43.91,81.01-76.86,113.97c-32.96,32.96-71.3,58.82-113.97,76.86c-44.11,18.66-91.03,28.11-139.48,28.11
			s-95.37-9.46-139.48-28.11c-42.67-18.05-81.01-43.91-113.97-76.86c-32.96-32.96-58.82-71.3-76.86-113.97
			c-18.66-44.11-28.12-91.03-28.12-139.48s9.46-95.37,28.12-139.48c18.05-42.67,43.91-81.01,76.86-113.97
			c32.96-32.96,71.3-58.82,113.97-76.86C444.63,191.03,491.56,181.57,540,181.57 M540,55.11C272.2,55.11,55.11,272.2,55.11,540
			S272.2,1024.89,540,1024.89S1024.89,807.8,1024.89,540S807.8,55.11,540,55.11L540,55.11z"/>
	</g>
</g>
<line class="st1" x1="286.42" y1="796.18" x2="788.7" y2="293.91"/>
</svg>
